<svg id="visual" viewBox="0 0 900 400" width="900" height="400" xmlns="http://www.w3.org/2000/svg" xmlns:xlink="http://www.w3.org/1999/xlink" version="1.1"><path d="M0 244L21.5 248.3C43 252.7 86 261.3 128.8 268.2C171.7 275 214.3 280 257.2 285.2C300 290.3 343 295.7 385.8 288.2C428.7 280.7 471.3 260.3 514.2 248.7C557 237 600 234 642.8 254.2C685.7 274.3 728.3 317.7 771.2 331.2C814 344.7 857 328.3 878.5 320.2L900 312L900 401L878.5 401C857 401 814 401 771.2 401C728.3 401 685.7 401 642.8 401C600 401 557 401 514.2 401C471.3 401 428.7 401 385.8 401C343 401 300 401 257.2 401C214.3 401 171.7 401 128.8 401C86 401 43 401 21.5 401L0 401Z" fill="#236b9a"></path><path d="M0 322L21.5 313.2C43 304.3 86 286.7 128.8 285.3C171.7 284 214.3 299 257.2 312.5C300 326 343 338 385.8 329.3C428.7 320.7 471.3 291.3 514.2 280.2C557 269 600 276 642.8 276.5C685.7 277 728.3 271 771.2 270.3C814 269.7 857 274.3 878.5 276.7L900 279L900 401L878.5 401C857 401 814 401 771.2 401C728.3 401 685.7 401 642.8 401C600 401 557 401 514.2 401C471.3 401 428.7 401 385.8 401C343 401 300 401 257.2 401C214.3 401 171.7 401 128.8 401C86 401 43 401 21.5 401L0 401Z" fill="#00bcb1"></path><path d="M0 368L21.5 369.2C43 370.3 86 372.7 128.8 362.7C171.7 352.7 214.3 330.3 257.2 316.5C300 302.7 343 297.3 385.8 294.2C428.7 291 471.3 290 514.2 298.3C557 306.7 600 324.3 642.8 335.2C685.7 346 728.3 350 771.2 341.2C814 332.3 857 310.7 878.5 299.8L900 289L900 401L878.5 401C857 401 814 401 771.2 401C728.3 401 685.7 401 642.8 401C600 401 557 401 514.2 401C471.3 401 428.7 401 385.8 401C343 401 300 401 257.2 401C214.3 401 171.7 401 128.8 401C86 401 43 401 21.5 401L0 401Z" fill="#31de3c"></path><path d="M0 323L21.5 327.3C43 331.7 86 340.3 128.8 340C171.7 339.7 214.3 330.3 257.2 332.5C300 334.7 343 348.3 385.8 356.2C428.7 364 471.3 366 514.2 361.7C557 357.3 600 346.7 642.8 338C685.7 329.3 728.3 322.7 771.2 323.7C814 324.7 857 333.3 878.5 337.7L900 342L900 401L878.5 401C857 401 814 401 771.2 401C728.3 401 685.7 401 642.8 401C600 401 557 401 514.2 401C471.3 401 428.7 401 385.8 401C343 401 300 401 257.2 401C214.3 401 171.7 401 128.8 401C86 401 43 401 21.5 401L0 401Z" fill="#00bcb1"></path><path d="M0 374L21.5 376.3C43 378.7 86 383.3 128.8 380.7C171.7 378 214.3 368 257.2 367.7C300 367.3 343 376.7 385.8 378.5C428.7 380.3 471.3 374.7 514.2 371.7C557 368.7 600 368.3 642.8 368.2C685.7 368 728.3 368 771.2 370.7C814 373.3 857 378.7 878.5 381.3L900 384L900 401L878.5 401C857 401 814 401 771.2 401C728.3 401 685.7 401 642.8 401C600 401 557 401 514.2 401C471.3 401 428.7 401 385.8 401C343 401 300 401 257.2 401C214.3 401 171.7 401 128.8 401C86 401 43 401 21.5 401L0 401Z" fill="#236b9a"></path></svg>