<svg id="visual" viewBox="0 0 2500 450" width="fit-content" height="83" xmlns="http://www.w3.org/2000/svg" xmlns:xlink="http://www.w3.org/1999/xlink" version="1.1"><path d="M0 159L52.2 166C104.3 173 208.7 187 312.8 188.3C417 189.7 521 178.3 625.2 169C729.3 159.7 833.7 152.3 937.8 153.3C1042 154.3 1146 163.7 1250.2 164.3C1354.3 165 1458.7 157 1562.8 155.7C1667 154.3 1771 159.7 1875.2 166.8C1979.3 174 2083.7 183 2187.8 183C2292 183 2396 174 2448 169.5L2500 165L2500 0L2448 0C2396 0 2292 0 2187.8 0C2083.7 0 1979.3 0 1875.2 0C1771 0 1667 0 1562.8 0C1458.7 0 1354.3 0 1250.2 0C1146 0 1042 0 937.8 0C833.7 0 729.3 0 625.2 0C521 0 417 0 312.8 0C208.7 0 104.3 0 52.2 0L0 0Z" fill="#0066FF" stroke-linecap="round" stroke-linejoin="miter"></path></svg>