<svg id="visual" viewBox="0 0 900 100" width="900" height="100" xmlns="http://www.w3.org/2000/svg" xmlns:xlink="http://www.w3.org/1999/xlink" version="1.1"><rect x="0" y="0" width="900" height="100" fill="#002f46"></rect><path d="M0 21L18.8 20.3C37.7 19.7 75.3 18.3 112.8 17.8C150.3 17.3 187.7 17.7 225.2 18.3C262.7 19 300.3 20 337.8 20.8C375.3 21.7 412.7 22.3 450.2 22C487.7 21.7 525.3 20.3 562.8 19C600.3 17.7 637.7 16.3 675.2 16.2C712.7 16 750.3 17 787.8 17.3C825.3 17.7 862.7 17.3 881.3 17.2L900 17L900 0L881.3 0C862.7 0 825.3 0 787.8 0C750.3 0 712.7 0 675.2 0C637.7 0 600.3 0 562.8 0C525.3 0 487.7 0 450.2 0C412.7 0 375.3 0 337.8 0C300.3 0 262.7 0 225.2 0C187.7 0 150.3 0 112.8 0C75.3 0 37.7 0 18.8 0L0 0Z" fill="#0066FF" stroke-linecap="round" stroke-linejoin="miter"></path></svg>