<svg id="visual" viewBox="0 0 900 100" width="900" height="100" xmlns="http://www.w3.org/2000/svg" xmlns:xlink="http://www.w3.org/1999/xlink" version="1.1"><rect x="0" y="0" width="900" height="100" fill="#002f46"></rect><path d="M0 10L9.3 11.2C18.7 12.3 37.3 14.7 56.2 16.3C75 18 94 19 112.8 21C131.7 23 150.3 26 169 25.8C187.7 25.7 206.3 22.3 225 22.5C243.7 22.7 262.3 26.3 281.2 26.7C300 27 319 24 337.8 22C356.7 20 375.3 19 394 19.2C412.7 19.3 431.3 20.7 450 20.3C468.7 20 487.3 18 506.2 16.5C525 15 544 14 562.8 14.2C581.7 14.3 600.3 15.7 619 17.7C637.7 19.7 656.3 22.3 675 21C693.7 19.7 712.3 14.3 731.2 14C750 13.7 769 18.3 787.8 20C806.7 21.7 825.3 20.3 844 19.5C862.7 18.7 881.3 18.3 890.7 18.2L900 18L900 0L890.7 0C881.3 0 862.7 0 844 0C825.3 0 806.7 0 787.8 0C769 0 750 0 731.2 0C712.3 0 693.7 0 675 0C656.3 0 637.7 0 619 0C600.3 0 581.7 0 562.8 0C544 0 525 0 506.2 0C487.3 0 468.7 0 450 0C431.3 0 412.7 0 394 0C375.3 0 356.7 0 337.8 0C319 0 300 0 281.2 0C262.3 0 243.7 0 225 0C206.3 0 187.7 0 169 0C150.3 0 131.7 0 112.8 0C94 0 75 0 56.2 0C37.3 0 18.7 0 9.3 0L0 0Z" fill="#0066FF" stroke-linecap="round" stroke-linejoin="miter"></path></svg>