<svg id="visual" viewBox="0 0 500 900" width="fit-content" height="83" xmlns="http://www.w3.org/2000/svg" xmlns:xlink="http://www.w3.org/1999/xlink" version="1.1"><path d="M0 227L20.8 230.7C41.7 234.3 83.3 241.7 125 236C166.7 230.3 208.3 211.7 250 200.5C291.7 189.3 333.3 185.7 375 186.2C416.7 186.7 458.3 191.3 479.2 193.7L500 196L500 0L479.2 0C458.3 0 416.7 0 375 0C333.3 0 291.7 0 250 0C208.3 0 166.7 0 125 0C83.3 0 41.7 0 20.8 0L0 0Z" fill="#0066FF" stroke-linecap="round" stroke-linejoin="miter"></path></svg>