<svg id="visual" viewBox="0 0 450 960" width="450" height="960" xmlns="http://www.w3.org/2000/svg" xmlns:xlink="http://www.w3.org/1999/xlink" version="1.1"><rect x="0" y="0" width="450" height="960" fill="#006799"></rect><path d="M0 157L9.3 152C18.7 147 37.3 137 56.2 133.7C75 130.3 94 133.7 112.8 138.2C131.7 142.7 150.3 148.3 169 154.2C187.7 160 206.3 166 225 164.5C243.7 163 262.3 154 281.2 144.8C300 135.7 319 126.3 337.8 125C356.7 123.7 375.3 130.3 394 131.8C412.7 133.3 431.3 129.7 440.7 127.8L450 126L450 0L440.7 0C431.3 0 412.7 0 394 0C375.3 0 356.7 0 337.8 0C319 0 300 0 281.2 0C262.3 0 243.7 0 225 0C206.3 0 187.7 0 169 0C150.3 0 131.7 0 112.8 0C94 0 75 0 56.2 0C37.3 0 18.7 0 9.3 0L0 0Z" fill="#0066FF" stroke-linecap="round" stroke-linejoin="miter"></path></svg>